<?xml version="1.0" encoding="iso-8859-1"?>
<!-- Generator: Adobe Illustrator 24.1.0, SVG Export Plug-In . SVG Version: 6.00 Build 0)  -->
<svg version="1.1" id="Layer_1" xmlns="http://www.w3.org/2000/svg" xmlns:xlink="http://www.w3.org/1999/xlink" x="0px" y="0px"
	 viewBox="0 0 48 48" style="enable-background:new 0 0 48 48;" xml:space="preserve">
<path style="fill:#1DE9B6;" d="M4,23.481C4,15.673,10.557,4,24.014,4C37.452,4,44,13.923,44,20.905c0,5.604-4.429,9.732-9.992,9.732
	c-4.245,0-6.759-1.408-6.759-2.53c0-0.726,1.755-1.837,1.755-3.982c0-2.565-1.986-5.137-5.045-5.137
	c-2.934,0-4.974,2.442-4.974,4.905c0,5.952,5.63,11.644,13.931,11.644c4.959,0,6.759-1.828,7.403-1.828
	c0.196,0,0.647,0.08,0.647,0.603c0,0.5-5.486,9.686-16.94,9.686C12.632,44,4,35.023,4,23.481z"/>
<radialGradient id="SVGID_1_" cx="17.993" cy="32.8252" r="21.3483" gradientTransform="matrix(1 0 0 1.1083 0 -3.5288)" gradientUnits="userSpaceOnUse">
	<stop  offset="0.6519" style="stop-color:#0083DE"/>
	<stop  offset="0.8215" style="stop-color:#006AAC"/>
	<stop  offset="0.9438" style="stop-color:#005A8C"/>
</radialGradient>
<path style="fill:url(#SVGID_1_);" d="M4,23.481c0-7.808,7.615-12.04,12.73-12.04c13.439,0,17.277,2.483,17.277,9.465
	c0,5.604-5.003,5.366-5.003,3.221c0-2.565-1.986-5.137-5.045-5.137c-2.934,0-4.974,2.442-4.974,4.905
	c0,5.952,5.63,11.644,13.931,11.644c4.959,0,6.759-1.828,7.403-1.828c0.196,0,0.647,0.08,0.647,0.603c0,0.5-5.486,9.686-16.94,9.686
	C12.632,44,4,35.023,4,23.481z"/>
<radialGradient id="SVGID_2_" cx="28.082" cy="29.2954" r="16.4779" gradientTransform="matrix(1 0 0 1.0028 0 -0.0672)" gradientUnits="userSpaceOnUse">
	<stop  offset="0.69" style="stop-color:#05509B"/>
	<stop  offset="0.7174" style="stop-color:#054E98"/>
	<stop  offset="1" style="stop-color:#033E78"/>
</radialGradient>
<path style="fill:url(#SVGID_2_);" d="M18.985,23.894c0-2.298,1.775-4.575,4.395-4.871c-4.104,0.349-8.798,4.375-8.798,11.831
	c0,7.963,6.864,13.465,13.943,12.628c8.386-1.927,12.441-8.74,12.441-9.168c0-0.523-0.451-0.603-0.647-0.603
	c-0.643,0-2.444,1.828-7.403,1.828C24.615,35.539,18.985,29.847,18.985,23.894z"/>
<radialGradient id="SVGID_3_" cx="47.6479" cy="16.0788" r="61.5317" gradientTransform="matrix(-1 0 0 -1.5084 95.2957 40.3101)" gradientUnits="userSpaceOnUse">
	<stop  offset="0" style="stop-color:#5EEB69"/>
	<stop  offset="0.2136" style="stop-color:#4BC958"/>
	<stop  offset="0.2245" style="stop-color:#4AC862"/>
	<stop  offset="0.2722" style="stop-color:#47C68B"/>
	<stop  offset="0.3229" style="stop-color:#44C4AE"/>
	<stop  offset="0.3761" style="stop-color:#41C2CB"/>
	<stop  offset="0.4328" style="stop-color:#3FC1E1"/>
	<stop  offset="0.4946" style="stop-color:#3EC0F1"/>
	<stop  offset="0.5652" style="stop-color:#3DBFFA"/>
	<stop  offset="0.6644" style="stop-color:#3DBFFD"/>
</radialGradient>
<path style="fill:url(#SVGID_3_);" d="M4,23.481C4,15.673,10.557,4,24.014,4C37.452,4,44,13.923,44,20.905
	c0,5.604-4.429,9.732-9.992,9.732c-4.245,0-6.759-1.408-6.759-2.53c0-0.726,1.755-1.837,1.755-3.982
	c0-2.565-2.076-10.678-12.628-10.678C13.442,13.448,5.256,14.745,4,23.481z"/>
</svg>